<?xml version="1.0" encoding="UTF-8"?>
<!DOCTYPE svg PUBLIC "-//W3C//DTD SVG 1.1//EN" "http://www.w3.org/Graphics/SVG/1.1/DTD/svg11.dtd">
<svg xmlns="http://www.w3.org/2000/svg" version="1.1" width="483px" height="439px" style="shape-rendering:geometricPrecision; text-rendering:geometricPrecision; image-rendering:optimizeQuality; fill-rule:evenodd; clip-rule:evenodd" xmlns:xlink="http://www.w3.org/1999/xlink">
<g><path style="opacity:0.997" fill="#fefefe" d="M 126.5,-0.5 C 202.833,-0.5 279.167,-0.5 355.5,-0.5C 433.269,6.93599 475.602,49.6027 482.5,127.5C 482.5,188.5 482.5,249.5 482.5,310.5C 475.635,388.365 433.302,431.032 355.5,438.5C 347.833,438.5 340.167,438.5 332.5,438.5C 332.5,438.167 332.5,437.833 332.5,437.5C 332.833,437.5 333.167,437.5 333.5,437.5C 337.951,436.851 342.284,435.684 346.5,434C 347.381,433.292 348.047,432.458 348.5,431.5C 356.164,428.166 361.83,422.833 365.5,415.5C 366.794,414.71 367.961,413.71 369,412.5C 369.561,409.721 370.394,407.054 371.5,404.5C 372.401,403.71 373.068,402.71 373.5,401.5C 374.793,400.158 375.626,398.491 376,396.5C 376.832,385.152 376.666,373.819 375.5,362.5C 374.295,358.718 372.795,355.052 371,351.5C 368.629,349.946 366.463,348.279 364.5,346.5C 362.5,342.5 359.5,339.5 355.5,337.5C 354.381,335.213 352.715,333.379 350.5,332C 334.48,322.939 317.48,320.939 299.5,326C 296.067,328.113 292.401,329.78 288.5,331C 285.777,332.742 283.443,334.909 281.5,337.5C 280.675,338.386 279.675,338.719 278.5,338.5C 278.771,340.38 278.104,341.713 276.5,342.5C 243.364,323.764 210.364,304.764 177.5,285.5C 177.191,274.752 177.524,264.085 178.5,253.5C 212.167,234.167 245.833,214.833 279.5,195.5C 284.562,199.687 289.896,203.354 295.5,206.5C 298.529,208.526 301.862,210.193 305.5,211.5C 328.779,216.819 348.279,210.819 364,193.5C 365.705,191.423 366.872,189.09 367.5,186.5C 368.458,186.047 369.292,185.381 370,184.5C 372.015,181.469 373.181,178.136 373.5,174.5C 373.5,174.167 373.5,173.833 373.5,173.5C 374.151,172.909 374.818,172.243 375.5,171.5C 376.666,160.181 376.832,148.848 376,137.5C 373.735,132.87 371.569,128.203 369.5,123.5C 368.482,122.807 367.482,122.141 366.5,121.5C 365.662,121.158 365.328,120.492 365.5,119.5C 370.923,108.433 370.756,97.4332 365,86.5C 362.755,81.0026 359.755,76.0026 356,71.5C 356.566,79.447 356.566,87.447 356,95.5C 354.389,99.2748 351.889,102.275 348.5,104.5C 344.93,100.849 340.597,98.3487 335.5,97C 325.991,96.1757 316.657,96.3424 307.5,97.5C 307.5,98.1667 307.167,98.5 306.5,98.5C 300.15,99.0144 294.15,100.681 288.5,103.5C 284.939,100.747 282.772,97.0802 282,92.5C 281.311,86.8095 281.478,81.1429 282.5,75.5C 282.333,74.5 282.167,73.5 282,72.5C 275.588,81.8962 271.422,92.2295 269.5,103.5C 270.429,109.282 271.762,114.948 273.5,120.5C 273.5,121.167 273.167,121.5 272.5,121.5C 270.91,121.628 269.577,122.295 268.5,123.5C 262.908,137.242 260.908,151.575 262.5,166.5C 229.167,185.833 195.833,205.167 162.5,224.5C 159.755,223.263 157.422,221.43 155.5,219C 153.655,217.872 151.655,217.372 149.5,217.5C 145.941,214.633 141.941,212.466 137.5,211C 127.833,210.333 118.167,210.333 108.5,211C 107.944,211.383 107.611,211.883 107.5,212.5C 103.832,213.667 100.498,215.334 97.5,217.5C 95.7085,217.366 94.0418,217.699 92.5,218.5C 85.8103,220.35 80.8103,224.35 77.5,230.5C 76.2519,231.04 75.0852,231.707 74,232.5C 72.4296,236.075 70.4296,239.408 68,242.5C 66.7633,246.06 66.2633,249.727 66.5,253.5C 65.1752,257.276 64.5085,261.443 64.5,266C 64.6667,270.167 64.8333,274.333 65,278.5C 65.2321,279.737 65.7321,280.737 66.5,281.5C 66.5,282.167 66.5,282.833 66.5,283.5C 68.6342,296.148 74.9675,305.814 85.5,312.5C 87.7488,313.08 89.4154,314.413 90.5,316.5C 90.281,317.675 90.6143,318.675 91.5,319.5C 97.0813,321.35 102.415,323.517 107.5,326C 117.5,326.667 127.5,326.667 137.5,326C 142.58,324.196 147.58,322.196 152.5,320C 153.998,317.336 155.998,315.17 158.5,313.5C 193.466,332.983 228.133,352.983 262.5,373.5C 261.367,381.421 261.2,389.421 262,397.5C 262.66,399.324 263.827,400.657 265.5,401.5C 267.074,403.102 267.741,405.102 267.5,407.5C 270.247,415.984 275.58,422.318 283.5,426.5C 283.842,427.338 284.508,427.672 285.5,427.5C 287.705,429.363 289.039,431.697 289.5,434.5C 293.277,435.994 297.277,436.661 301.5,436.5C 301.5,437.167 301.5,437.833 301.5,438.5C 243.167,438.5 184.833,438.5 126.5,438.5C 48.6982,431.032 6.36489,388.365 -0.5,310.5C -0.5,249.5 -0.5,188.5 -0.5,127.5C 6.39755,49.6027 48.7309,6.93599 126.5,-0.5 Z"/></g>
<g><path style="opacity:1" fill="#0b0a09" d="M 365.5,119.5 C 361.46,115.458 357.127,111.791 352.5,108.5C 351.167,107.167 349.833,105.833 348.5,104.5C 351.889,102.275 354.389,99.2748 356,95.5C 356.566,87.447 356.566,79.447 356,71.5C 359.755,76.0026 362.755,81.0026 365,86.5C 370.756,97.4332 370.923,108.433 365.5,119.5 Z"/></g>
<g><path style="opacity:1" fill="#090706" d="M 288.5,103.5 C 288.5,104.167 288.833,104.5 289.5,104.5C 289.631,105.239 289.464,105.906 289,106.5C 283.015,110.321 277.848,114.988 273.5,120.5C 271.762,114.948 270.429,109.282 269.5,103.5C 271.422,92.2295 275.588,81.8962 282,72.5C 282.167,73.5 282.333,74.5 282.5,75.5C 281.478,81.1429 281.311,86.8095 282,92.5C 282.772,97.0802 284.939,100.747 288.5,103.5 Z"/></g>
<g><path style="opacity:1" fill="#fef49d" d="M 307.5,97.5 C 315.507,97.3336 323.507,97.5003 331.5,98C 332.737,98.2321 333.737,98.7321 334.5,99.5C 325.685,98.2744 317.019,98.2744 308.5,99.5C 307.833,99.5 307.167,99.5 306.5,99.5C 306.5,99.1667 306.5,98.8333 306.5,98.5C 307.167,98.5 307.5,98.1667 307.5,97.5 Z"/></g>
<g><path style="opacity:1" fill="#fefee0" d="M 307.5,97.5 C 316.657,96.3424 325.991,96.1757 335.5,97C 340.597,98.3487 344.93,100.849 348.5,104.5C 343.807,102.781 339.14,101.114 334.5,99.5C 333.737,98.7321 332.737,98.2321 331.5,98C 323.507,97.5003 315.507,97.3336 307.5,97.5 Z"/></g>
<g><path style="opacity:1" fill="#fcf9d1" d="M 306.5,98.5 C 306.5,98.8333 306.5,99.1667 306.5,99.5C 305.127,99.3433 303.793,99.51 302.5,100C 298.393,102.923 294.059,104.423 289.5,104.5C 288.833,104.5 288.5,104.167 288.5,103.5C 294.15,100.681 300.15,99.0144 306.5,98.5 Z"/></g>
<g><path style="opacity:1" fill="#fdd618" d="M 306.5,99.5 C 307.167,99.5 307.833,99.5 308.5,99.5C 317.189,99.573 325.855,100.073 334.5,101C 340.731,103.209 346.731,105.709 352.5,108.5C 357.127,111.791 361.46,115.458 365.5,119.5C 365.328,120.492 365.662,121.158 366.5,121.5C 369.909,126.773 372.576,132.44 374.5,138.5C 374.666,147.839 374.5,157.173 374,166.5C 371.547,173.716 368.714,180.716 365.5,187.5C 364.167,189.5 362.833,191.5 361.5,193.5C 358.907,194.754 356.573,196.42 354.5,198.5C 352.801,198.34 351.134,198.506 349.5,199C 350.833,199.667 350.833,200.333 349.5,201C 344.404,202.059 339.737,203.893 335.5,206.5C 324.495,207.766 313.495,207.766 302.5,206.5C 295.608,202.247 288.608,198.081 281.5,194C 280.236,191.191 278.236,189.024 275.5,187.5C 274.548,185.955 274.215,184.288 274.5,182.5C 273.167,182.5 271.833,182.5 270.5,182.5C 270.17,177.514 268.837,172.847 266.5,168.5C 264.794,155.661 265.46,142.995 268.5,130.5C 269.839,127.497 271.172,124.497 272.5,121.5C 273.167,121.5 273.5,121.167 273.5,120.5C 277.848,114.988 283.015,110.321 289,106.5C 289.464,105.906 289.631,105.239 289.5,104.5C 294.059,104.423 298.393,102.923 302.5,100C 303.793,99.51 305.127,99.3433 306.5,99.5 Z"/></g>
<g><path style="opacity:1" fill="#f0d754" d="M 308.5,99.5 C 317.019,98.2744 325.685,98.2744 334.5,99.5C 339.14,101.114 343.807,102.781 348.5,104.5C 349.833,105.833 351.167,107.167 352.5,108.5C 346.731,105.709 340.731,103.209 334.5,101C 325.855,100.073 317.189,99.573 308.5,99.5 Z"/></g>
<g><path style="opacity:1" fill="#fefccd" d="M 272.5,121.5 C 271.172,124.497 269.839,127.497 268.5,130.5C 266.255,133.754 264.755,137.42 264,141.5C 263.5,149.493 263.334,157.493 263.5,165.5C 263.5,166.167 263.167,166.5 262.5,166.5C 260.908,151.575 262.908,137.242 268.5,123.5C 269.577,122.295 270.91,121.628 272.5,121.5 Z"/></g>
<g><path style="opacity:1" fill="#fefcc7" d="M 366.5,121.5 C 367.482,122.141 368.482,122.807 369.5,123.5C 371.569,128.203 373.735,132.87 376,137.5C 376.832,148.848 376.666,160.181 375.5,171.5C 374.818,172.243 374.151,172.909 373.5,173.5C 375.697,161.791 376.031,150.124 374.5,138.5C 372.576,132.44 369.909,126.773 366.5,121.5 Z"/></g>
<g><path style="opacity:1" fill="#ecce3e" d="M 268.5,130.5 C 265.46,142.995 264.794,155.661 266.5,168.5C 268.837,172.847 270.17,177.514 270.5,182.5C 266.802,177.354 264.469,171.688 263.5,165.5C 263.334,157.493 263.5,149.493 264,141.5C 264.755,137.42 266.255,133.754 268.5,130.5 Z"/></g>
<g><path style="opacity:1" fill="#030202" d="M 263.5,165.5 C 264.469,171.688 266.802,177.354 270.5,182.5C 273.11,187.109 276.11,191.442 279.5,195.5C 245.833,214.833 212.167,234.167 178.5,253.5C 176.649,250.628 174.983,247.628 173.5,244.5C 173.25,242.326 172.25,240.659 170.5,239.5C 170.291,238.078 169.791,236.745 169,235.5C 166.331,232 163.498,228.667 160.5,225.5C 161.492,225.672 162.158,225.338 162.5,224.5C 195.833,205.167 229.167,185.833 262.5,166.5C 263.167,166.5 263.5,166.167 263.5,165.5 Z"/></g>
<g><path style="opacity:1" fill="#fffdca" d="M 373.5,174.5 C 373.181,178.136 372.015,181.469 370,184.5C 369.292,185.381 368.458,186.047 367.5,186.5C 369.104,182.25 371.104,178.25 373.5,174.5 Z"/></g>
<g><path style="opacity:1" fill="#f4dd62" d="M 374.5,138.5 C 376.031,150.124 375.697,161.791 373.5,173.5C 373.5,173.833 373.5,174.167 373.5,174.5C 371.104,178.25 369.104,182.25 367.5,186.5C 366.833,186.833 366.167,187.167 365.5,187.5C 368.714,180.716 371.547,173.716 374,166.5C 374.5,157.173 374.666,147.839 374.5,138.5 Z"/></g>
<g><path style="opacity:1" fill="#fbf3a2" d="M 361.5,193.5 C 359.1,196.903 356.1,199.57 352.5,201.5C 353.167,200.5 353.833,199.5 354.5,198.5C 356.573,196.42 358.907,194.754 361.5,193.5 Z"/></g>
<g><path style="opacity:1" fill="#f5d537" d="M 270.5,182.5 C 271.833,182.5 273.167,182.5 274.5,182.5C 274.215,184.288 274.548,185.955 275.5,187.5C 278.236,189.024 280.236,191.191 281.5,194C 288.608,198.081 295.608,202.247 302.5,206.5C 313.495,207.766 324.495,207.766 335.5,206.5C 339.737,203.893 344.404,202.059 349.5,201C 350.833,200.333 350.833,199.667 349.5,199C 351.134,198.506 352.801,198.34 354.5,198.5C 353.833,199.5 353.167,200.5 352.5,201.5C 347.017,204.278 341.35,206.778 335.5,209C 324.833,209.667 314.167,209.667 303.5,209C 300.846,208.059 298.179,207.226 295.5,206.5C 289.896,203.354 284.562,199.687 279.5,195.5C 276.11,191.442 273.11,187.109 270.5,182.5 Z"/></g>
<g><path style="opacity:1" fill="#fffdd4" d="M 149.5,217.5 C 144.29,216.228 139.29,214.395 134.5,212C 125.452,211.223 116.452,211.389 107.5,212.5C 107.611,211.883 107.944,211.383 108.5,211C 118.167,210.333 127.833,210.333 137.5,211C 141.941,212.466 145.941,214.633 149.5,217.5 Z"/></g>
<g><path style="opacity:1" fill="#fefbd2" d="M 367.5,186.5 C 366.872,189.09 365.705,191.423 364,193.5C 348.279,210.819 328.779,216.819 305.5,211.5C 301.862,210.193 298.529,208.526 295.5,206.5C 298.179,207.226 300.846,208.059 303.5,209C 314.167,209.667 324.833,209.667 335.5,209C 341.35,206.778 347.017,204.278 352.5,201.5C 356.1,199.57 359.1,196.903 361.5,193.5C 362.833,191.5 364.167,189.5 365.5,187.5C 366.167,187.167 366.833,186.833 367.5,186.5 Z"/></g>
<g><path style="opacity:1" fill="#f5d950" d="M 149.5,217.5 C 149.833,218.167 150.167,218.833 150.5,219.5C 145.986,218.579 141.652,217.079 137.5,215C 132.868,214.172 128.202,213.672 123.5,213.5C 114.709,214.213 106.042,215.547 97.5,217.5C 100.498,215.334 103.832,213.667 107.5,212.5C 116.452,211.389 125.452,211.223 134.5,212C 139.29,214.395 144.29,216.228 149.5,217.5 Z"/></g>
<g><path style="opacity:1" fill="#fdd717" d="M 150.5,219.5 C 152.23,220.026 153.564,221.026 154.5,222.5C 160.122,227.792 165.455,233.459 170.5,239.5C 172.25,240.659 173.25,242.326 173.5,244.5C 173.562,247.753 174.396,250.753 176,253.5C 176.996,265.293 176.496,276.959 174.5,288.5C 173.292,289.234 171.959,289.567 170.5,289.5C 169.14,292.62 168.307,295.953 168,299.5C 166.559,300.87 164.892,301.87 163,302.5C 162.506,304.134 162.34,305.801 162.5,307.5C 162.5,308.167 162.167,308.5 161.5,308.5C 159.409,308.318 157.409,308.652 155.5,309.5C 154.289,310.274 154.289,311.107 155.5,312C 151.804,314.345 147.804,316.012 143.5,317C 140.962,318.359 138.629,320.026 136.5,322C 125.473,322.74 114.473,322.574 103.5,321.5C 98.8208,320.658 94.4875,318.991 90.5,316.5C 89.4154,314.413 87.7488,313.08 85.5,312.5C 81.3766,308.718 78.0433,304.385 75.5,299.5C 73.2024,295.156 72.0358,290.49 72,285.5C 69.2115,283.632 67.8782,280.966 68,277.5C 65.3092,260.582 69.3092,245.582 80,232.5C 85.1554,226.496 90.9888,221.496 97.5,217.5C 106.042,215.547 114.709,214.213 123.5,213.5C 128.202,213.672 132.868,214.172 137.5,215C 141.652,217.079 145.986,218.579 150.5,219.5 Z"/></g>
<g><path style="opacity:1" fill="#fcfad6" d="M 149.5,217.5 C 151.655,217.372 153.655,217.872 155.5,219C 157.422,221.43 159.755,223.263 162.5,224.5C 162.158,225.338 161.492,225.672 160.5,225.5C 158.517,224.529 156.517,223.529 154.5,222.5C 153.564,221.026 152.23,220.026 150.5,219.5C 150.167,218.833 149.833,218.167 149.5,217.5 Z"/></g>
<g><path style="opacity:1" fill="#e0c645" d="M 154.5,222.5 C 156.517,223.529 158.517,224.529 160.5,225.5C 163.498,228.667 166.331,232 169,235.5C 169.791,236.745 170.291,238.078 170.5,239.5C 165.455,233.459 160.122,227.792 154.5,222.5 Z"/></g>
<g><path style="opacity:1" fill="#fffcd6" d="M 92.5,218.5 C 86.8625,223.967 81.0292,229.301 75,234.5C 71.5621,240.697 68.7287,247.031 66.5,253.5C 66.2633,249.727 66.7633,246.06 68,242.5C 70.4296,239.408 72.4296,236.075 74,232.5C 75.0852,231.707 76.2519,231.04 77.5,230.5C 80.8103,224.35 85.8103,220.35 92.5,218.5 Z"/></g>
<g><path style="opacity:1" fill="#e3c94c" d="M 173.5,244.5 C 174.983,247.628 176.649,250.628 178.5,253.5C 177.524,264.085 177.191,274.752 177.5,285.5C 176.272,286.306 175.272,287.306 174.5,288.5C 176.496,276.959 176.996,265.293 176,253.5C 174.396,250.753 173.562,247.753 173.5,244.5 Z"/></g>
<g><path style="opacity:1" fill="#fffdc4" d="M 66.5,253.5 C 65.2255,262.814 65.2255,272.147 66.5,281.5C 65.7321,280.737 65.2321,279.737 65,278.5C 64.8333,274.333 64.6667,270.167 64.5,266C 64.5085,261.443 65.1752,257.276 66.5,253.5 Z"/></g>
<g><path style="opacity:1" fill="#f5d848" d="M 97.5,217.5 C 90.9888,221.496 85.1554,226.496 80,232.5C 69.3092,245.582 65.3092,260.582 68,277.5C 67.8782,280.966 69.2115,283.632 72,285.5C 72.0358,290.49 73.2024,295.156 75.5,299.5C 72.5,294.167 69.5,288.833 66.5,283.5C 66.5,282.833 66.5,282.167 66.5,281.5C 65.2255,272.147 65.2255,262.814 66.5,253.5C 68.7287,247.031 71.5621,240.697 75,234.5C 81.0292,229.301 86.8625,223.967 92.5,218.5C 94.0418,217.699 95.7085,217.366 97.5,217.5 Z"/></g>
<g><path style="opacity:1" fill="#030202" d="M 177.5,285.5 C 210.364,304.764 243.364,323.764 276.5,342.5C 276.5,343.167 276.833,343.5 277.5,343.5C 274.745,346.013 272.745,349.013 271.5,352.5C 268.18,356.144 266.18,360.478 265.5,365.5C 263.96,367.838 263.294,370.505 263.5,373.5C 263.167,373.5 262.833,373.5 262.5,373.5C 228.133,352.983 193.466,332.983 158.5,313.5C 158.5,313.167 158.5,312.833 158.5,312.5C 159.5,311.167 160.5,309.833 161.5,308.5C 162.167,308.5 162.5,308.167 162.5,307.5C 168.263,302.312 172.263,295.979 174.5,288.5C 175.272,287.306 176.272,286.306 177.5,285.5 Z"/></g>
<g><path style="opacity:1" fill="#eacb39" d="M 174.5,288.5 C 172.263,295.979 168.263,302.312 162.5,307.5C 162.34,305.801 162.506,304.134 163,302.5C 164.892,301.87 166.559,300.87 168,299.5C 168.307,295.953 169.14,292.62 170.5,289.5C 171.959,289.567 173.292,289.234 174.5,288.5 Z"/></g>
<g><path style="opacity:1" fill="#fefbc4" d="M 66.5,283.5 C 69.5,288.833 72.5,294.167 75.5,299.5C 78.0433,304.385 81.3766,308.718 85.5,312.5C 74.9675,305.814 68.6342,296.148 66.5,283.5 Z"/></g>
<g><path style="opacity:1" fill="#f4d641" d="M 161.5,308.5 C 160.5,309.833 159.5,311.167 158.5,312.5C 152.101,317.033 145.101,320.533 137.5,323C 127.167,323.667 116.833,323.667 106.5,323C 105.263,322.768 104.263,322.268 103.5,321.5C 114.473,322.574 125.473,322.74 136.5,322C 138.629,320.026 140.962,318.359 143.5,317C 147.804,316.012 151.804,314.345 155.5,312C 154.289,311.107 154.289,310.274 155.5,309.5C 157.409,308.652 159.409,308.318 161.5,308.5 Z"/></g>
<g><path style="opacity:1" fill="#fffdde" d="M 355.5,337.5 C 352.688,335.592 349.688,333.925 346.5,332.5C 344.231,331.024 341.898,329.524 339.5,328C 335.942,327.854 332.609,327.021 329.5,325.5C 322.345,324.345 315.012,324.178 307.5,325C 305.934,325.608 304.6,326.442 303.5,327.5C 297.6,329.449 291.934,331.949 286.5,335C 284.959,336.371 283.625,337.871 282.5,339.5C 280.427,340.3 278.76,341.633 277.5,343.5C 276.833,343.5 276.5,343.167 276.5,342.5C 278.104,341.713 278.771,340.38 278.5,338.5C 279.675,338.719 280.675,338.386 281.5,337.5C 283.443,334.909 285.777,332.742 288.5,331C 292.401,329.78 296.067,328.113 299.5,326C 317.48,320.939 334.48,322.939 350.5,332C 352.715,333.379 354.381,335.213 355.5,337.5 Z"/></g>
<g><path style="opacity:1" fill="#fdfbbb" d="M 329.5,325.5 C 320.689,325.039 312.022,325.706 303.5,327.5C 304.6,326.442 305.934,325.608 307.5,325C 315.012,324.178 322.345,324.345 329.5,325.5 Z"/></g>
<g><path style="opacity:1" fill="#fffde0" d="M 158.5,312.5 C 158.5,312.833 158.5,313.167 158.5,313.5C 155.998,315.17 153.998,317.336 152.5,320C 147.58,322.196 142.58,324.196 137.5,326C 127.5,326.667 117.5,326.667 107.5,326C 102.415,323.517 97.0813,321.35 91.5,319.5C 90.6143,318.675 90.281,317.675 90.5,316.5C 94.4875,318.991 98.8208,320.658 103.5,321.5C 104.263,322.268 105.263,322.768 106.5,323C 116.833,323.667 127.167,323.667 137.5,323C 145.101,320.533 152.101,317.033 158.5,312.5 Z"/></g>
<g><path style="opacity:1" fill="#f6d743" d="M 329.5,325.5 C 332.609,327.021 335.942,327.854 339.5,328C 341.898,329.524 344.231,331.024 346.5,332.5C 336.034,327.91 325.034,326.41 313.5,328C 308.431,328.704 303.431,329.704 298.5,331C 296.208,332.29 294.208,333.957 292.5,336C 291.101,336.595 289.768,336.428 288.5,335.5C 286.736,337.278 284.736,338.611 282.5,339.5C 283.625,337.871 284.959,336.371 286.5,335C 291.934,331.949 297.6,329.449 303.5,327.5C 312.022,325.706 320.689,325.039 329.5,325.5 Z"/></g>
<g><path style="opacity:1" fill="#fdd617" d="M 346.5,332.5 C 349.688,333.925 352.688,335.592 355.5,337.5C 358.167,340.833 361.167,343.833 364.5,346.5C 365.11,347.391 365.443,348.391 365.5,349.5C 365.343,350.873 365.51,352.207 366,353.5C 369.927,358.136 372.261,363.47 373,369.5C 373.966,381.256 373.466,392.923 371.5,404.5C 370.394,407.054 369.561,409.721 369,412.5C 367.961,413.71 366.794,414.71 365.5,415.5C 363.833,417.833 361.833,419.833 359.5,421.5C 357.833,421.5 356.167,421.5 354.5,421.5C 354.519,426.016 352.186,428.016 347.5,427.5C 347.5,428.5 347.5,429.5 347.5,430.5C 343.678,432.102 339.678,433.269 335.5,434C 323.5,434.667 311.5,434.667 299.5,434C 295.918,432.754 293.251,430.42 291.5,427C 287.78,425.594 284.114,424.094 280.5,422.5C 276.101,418.432 272.435,413.765 269.5,408.5C 268.308,403.106 266.808,397.773 265,392.5C 264.284,383.473 264.451,374.473 265.5,365.5C 266.18,360.478 268.18,356.144 271.5,352.5C 275.513,348.485 279.179,344.152 282.5,339.5C 284.736,338.611 286.736,337.278 288.5,335.5C 289.768,336.428 291.101,336.595 292.5,336C 294.208,333.957 296.208,332.29 298.5,331C 303.431,329.704 308.431,328.704 313.5,328C 325.034,326.41 336.034,327.91 346.5,332.5 Z"/></g>
<g><path style="opacity:1" fill="#fef6ab" d="M 355.5,337.5 C 359.5,339.5 362.5,342.5 364.5,346.5C 361.167,343.833 358.167,340.833 355.5,337.5 Z"/></g>
<g><path style="opacity:1" fill="#dec44b" d="M 282.5,339.5 C 279.179,344.152 275.513,348.485 271.5,352.5C 272.745,349.013 274.745,346.013 277.5,343.5C 278.76,341.633 280.427,340.3 282.5,339.5 Z"/></g>
<g><path style="opacity:1" fill="#fffdcf" d="M 364.5,346.5 C 366.463,348.279 368.629,349.946 371,351.5C 372.795,355.052 374.295,358.718 375.5,362.5C 376.666,373.819 376.832,385.152 376,396.5C 375.626,398.491 374.793,400.158 373.5,401.5C 375.514,390.633 376.014,379.633 375,368.5C 373.618,361.134 370.452,354.801 365.5,349.5C 365.443,348.391 365.11,347.391 364.5,346.5 Z"/></g>
<g><path style="opacity:1" fill="#f4da51" d="M 365.5,349.5 C 370.452,354.801 373.618,361.134 375,368.5C 376.014,379.633 375.514,390.633 373.5,401.5C 373.068,402.71 372.401,403.71 371.5,404.5C 373.466,392.923 373.966,381.256 373,369.5C 372.261,363.47 369.927,358.136 366,353.5C 365.51,352.207 365.343,350.873 365.5,349.5 Z"/></g>
<g><path style="opacity:1" fill="#ebd359" d="M 265.5,365.5 C 264.451,374.473 264.284,383.473 265,392.5C 266.808,397.773 268.308,403.106 269.5,408.5C 268.833,408.167 268.167,407.833 267.5,407.5C 267.741,405.102 267.074,403.102 265.5,401.5C 263.727,392.282 263.06,382.949 263.5,373.5C 263.294,370.505 263.96,367.838 265.5,365.5 Z"/></g>
<g><path style="opacity:1" fill="#fffcd4" d="M 262.5,373.5 C 262.833,373.5 263.167,373.5 263.5,373.5C 263.06,382.949 263.727,392.282 265.5,401.5C 263.827,400.657 262.66,399.324 262,397.5C 261.2,389.421 261.367,381.421 262.5,373.5 Z"/></g>
<g><path style="opacity:1" fill="#fefbca" d="M 267.5,407.5 C 268.167,407.833 268.833,408.167 269.5,408.5C 272.435,413.765 276.101,418.432 280.5,422.5C 281.5,423.833 282.5,425.167 283.5,426.5C 275.58,422.318 270.247,415.984 267.5,407.5 Z"/></g>
<g><path style="opacity:1" fill="#fdf4a9" d="M 365.5,415.5 C 361.83,422.833 356.164,428.166 348.5,431.5C 352.734,428.868 356.401,425.534 359.5,421.5C 361.833,419.833 363.833,417.833 365.5,415.5 Z"/></g>
<g><path style="opacity:1" fill="#fefbd0" d="M 285.5,427.5 C 290.865,430.552 296.198,433.552 301.5,436.5C 297.277,436.661 293.277,435.994 289.5,434.5C 289.039,431.697 287.705,429.363 285.5,427.5 Z"/></g>
<g><path style="opacity:1" fill="#f7d737" d="M 359.5,421.5 C 356.401,425.534 352.734,428.868 348.5,431.5C 343.143,432.761 338.143,434.761 333.5,437.5C 333.167,437.5 332.833,437.5 332.5,437.5C 322.115,437.786 311.782,437.452 301.5,436.5C 296.198,433.552 290.865,430.552 285.5,427.5C 284.508,427.672 283.842,427.338 283.5,426.5C 282.5,425.167 281.5,423.833 280.5,422.5C 284.114,424.094 287.78,425.594 291.5,427C 293.251,430.42 295.918,432.754 299.5,434C 311.5,434.667 323.5,434.667 335.5,434C 339.678,433.269 343.678,432.102 347.5,430.5C 347.5,429.5 347.5,428.5 347.5,427.5C 352.186,428.016 354.519,426.016 354.5,421.5C 356.167,421.5 357.833,421.5 359.5,421.5 Z"/></g>
<g><path style="opacity:1" fill="#fef9b8" d="M 348.5,431.5 C 348.047,432.458 347.381,433.292 346.5,434C 342.284,435.684 337.951,436.851 333.5,437.5C 338.143,434.761 343.143,432.761 348.5,431.5 Z"/></g>
<g><path style="opacity:1" fill="#fefdc2" d="M 301.5,436.5 C 311.782,437.452 322.115,437.786 332.5,437.5C 332.5,437.833 332.5,438.167 332.5,438.5C 322.167,438.5 311.833,438.5 301.5,438.5C 301.5,437.833 301.5,437.167 301.5,436.5 Z"/></g>
</svg>
